<svg xmlns="http://www.w3.org/2000/svg" viewBox="0 0 48 48">
  <defs>
    <linearGradient id="g" x1="0" y1="0" x2="1" y2="1">
      <stop offset="0%" stop-color="#22d3ee"/>
      <stop offset="100%" stop-color="#7c3aed"/>
    </linearGradient>
  </defs>
  <rect width="48" height="48" rx="10" fill="url(#g)"/>
  <g fill="white">
    <path d="M27.2 15.5a6 6 0 0 1 8.5 8.5l-4.2 4.2a6 6 0 0 1-8.5-8.5l1.1-1.1a1.5 1.5 0 1 1 2.1 2.1l-1.1 1.1a3 3 0 0 0 4.2 4.2l4.2-4.2a3 3 0 0 0-4.2-4.2 1.5 1.5 0 1 1-2.1-2.1Z"/>
    <path d="M20.8 32.5a6 6 0 0 1-8.5-8.5l4.2-4.2a6 6 0 0 1 8.5 8.5l-1.1 1.1a1.5 1.5 0 1 1-2.1-2.1l1.1-1.1a3 3 0 1 0-4.2-4.2l-4.2 4.2a3 3 0 0 0 4.2 4.2 1.5 1.5 0 1 1 2.1 2.1Z"/>
  </g>
</svg>
